@startuml
<<<<<<< Updated upstream
package Screens{
=======
>>>>>>> Stashed changes
interface Screens{
    void show()
    void render(float delta)
    void resize(int width, int height)
    void pause()
    void resume()
    void hide()
    void dispose()
}
class Menu_Screen{
    private MyGame game
    private Viewport game_port
    private OrthographicCamera gamecam

    public Menu_Screen(MyGame game)

}
class Play_Screen{
     private MyGame game
     private Viewport game_port
     private OrthographicCamera gamecam
    public Play_Screen(MyGame game)
}

class Credits_Screen{
    private MyGame game
    private Viewport game_port
    private OrthographicCamera gamecam
    private Hud hud
    public Credits_Screen(MyGame game)
}
<<<<<<< Updated upstream
}
package Scenes{
=======
<<<<<<< HEAD:Architecture Diagrams/Class Diagrams/Scenes_and_Screens_package.puml
}
package Scenes{
=======

>>>>>>> parent of a76e8cc (class syntax):Architecture Diagrams/Class Diagrams/Screens_package.puml
>>>>>>> Stashed changes
class Hud {
    public Stage stage
    private Viewport viewport

    Label credits_label
    Label name1
    Label name2
    Label name3
    Label name4
    Label name5
    Label name6

    public Hud(SpriteBatch sb)
}
}

<<<<<<< Updated upstream
Credits_Screen "." -- "." Hud
=======
<<<<<<< HEAD:Architecture Diagrams/Class Diagrams/Scenes_and_Screens_package.puml
Credits_Screen "." -- "." Hud
=======

Credits_Screen "provides screen conent" -- "." Hud
>>>>>>> parent of a76e8cc (class syntax):Architecture Diagrams/Class Diagrams/Screens_package.puml
>>>>>>> Stashed changes

Screens <|-- Credits_Screen
Screens <|-- Menu_Screen
Screens <|-- Play_Screen



@enduml